<?xml version="1.0" encoding="UTF-8"?>
<svg id="Layer_2" data-name="Layer 2" xmlns="http://www.w3.org/2000/svg" viewBox="0 0 205.69 128.93">
  <defs>
    <style>
      .cls-1 {
        fill: #2b1c0d;
      }

      .cls-2 {
        fill: #edd0a9;
      }

      .cls-3 {
        fill: #29abe2;
        opacity: .15;
      }
    </style>
  </defs>
  <g id="Layer_1-2" data-name="Layer 1">
    <g>
      <path class="cls-3" d="M179.11,10.08c-6.39-.39-11.42.81-15.34,2.88.09-1.96.16-3.94.22-5.92.1-3.86-3.02-7.04-6.88-7.04H6.89C3.02,0-.1,3.18,0,7.05c1.21,47.66,14.69,89.75,35.03,116.85,2.37,3.16,6.08,5.03,10.03,5.03h73.87c3.93,0,7.63-1.84,9.99-4.98,3.39-4.51,6.59-9.43,9.57-14.74,55.54-14.18,66-49.36,67.12-67.64.69-11.17-2.82-30.04-26.5-31.5ZM195.09,40.93c-.5,8.14-3.13,20.29-12.84,31.9-8.59,10.26-21.08,18.14-37.26,23.51,8.7-19.28,14.85-42.25,17.55-67.34.27-.55.57-1.1.91-1.64,1.96-3.17,5.67-7.31,15.02-6.74,10.19.61,13.04,5.4,13.97,6.97,2.84,4.76,2.8,10.92,2.65,13.35Z"/>
      <path class="cls-3" d="M156.42,0c0,3.7-.09,7.36-.26,10.98-.22,4.6-.57,9.13-1.05,13.58-2.29,21.25-7.5,40.69-14.86,57.02-1.71,3.81-3.55,7.44-5.5,10.9-2.78,4.95-5.79,9.52-9,13.65-1.5,1.93-3.81,3.04-6.25,3.04H42.66c-2.44,0-4.75-1.11-6.24-3.04C17.82,82.14,5.75,43.53,5.75,0h150.68Z"/>
      <path class="cls-3" d="M155.82,16.75c-.16,2.24-.35,4.44-.58,6.64-.03.39-.07.78-.12,1.18-2.29,21.25-7.5,40.69-14.86,57.01-1.71,3.81-3.55,7.44-5.5,10.9-2.78,4.96-5.79,9.52-8.99,13.65-1.49,1.93-3.81,3.04-6.25,3.04H42.66c-2.44,0-4.75-1.11-6.24-3.03C21.23,86.54,10.39,57.2,6.93,23.39c-.23-2.19-.42-4.41-.58-6.64h149.47Z"/>
      <path class="cls-1" d="M155.24,23.39c-.03.39-.07.78-.12,1.18-2.29,21.25-7.5,40.69-14.86,57.01-1.71,3.81-3.55,7.44-5.5,10.9-2.78,4.96-5.79,9.52-8.99,13.65-1.49,1.93-3.81,3.04-6.25,3.04H42.66c-2.44,0-4.75-1.11-6.24-3.03C21.23,86.54,10.39,57.2,6.93,23.39h148.3Z"/>
      <path class="cls-2" d="M155.82,16.75c-.16,2.24-.35,4.44-.58,6.64H6.93c-.23-2.19-.42-4.41-.58-6.64h149.47Z"/>
    </g>
  </g>
</svg>