<?xml version="1.0" encoding="UTF-8"?>
<svg id="Layer_2" data-name="Layer 2" xmlns="http://www.w3.org/2000/svg" viewBox="0 0 27.85 71.88">
  <defs>
    <style>
      .cls-1 {
        fill: #54a1f3;
      }
    </style>
  </defs>
  <g id="Layer_1-2" data-name="Layer 1">
    <path class="cls-1" d="M24.97,0l-9.67.22c-.17-.14-.38-.22-.62-.22h-7.37c-.54,0-.99.44-.99.99v1.52h3.36v1.99h.16v6.52h-1.32c-.31,0-.57.25-.57.57v1.9h-1c-.4,0-.72.32-.72.72v3.76s0,.1-.12.21c-.12.11-.24.21-.25.44,0,.23.31,10.24-4.8,14.11C.49,33.18,0,33.93,0,34.79v4.24s-.03.58.22.99c.25.41.38.75.38,1.2v23.12s.02.35-.22.59c-.24.24-.32.55-.32.82v3.51s-.08,2.61,2.61,2.61h16.62c2.69,0,2.61-2.61,2.61-2.61v-3.51c0-.27-.08-.58-.32-.82-.24-.24-.22-.59-.22-.59v-23.12c0-.45.13-.79.38-1.2.25-.41.22-.99.22-.99v-4.24c0-.86-.49-1.62-1.06-2.07-5.12-3.87-4.8-13.88-4.8-14.11,0-.23-.13-.33-.25-.44-.12-.1-.12-.21-.12-.21v-3.76c0-.4-.32-.72-.72-.72h-1v-1.9c0-.31-.25-.57-.57-.57h-1.32v-6.52h.16v-1.99h3.36v-.54c.73-.04,7.58-.43,8.86-.49,1.35-.06,1.89.68,1.89.68,0,0,.78-.48,1.44-1.04C26.65-.1,24.97,0,24.97,0Z"/>
  </g>
</svg>