<?xml version="1.0" encoding="UTF-8"?>
<svg id="Layer_2" data-name="Layer 2" xmlns="http://www.w3.org/2000/svg" viewBox="0 0 122.77 130.97">
  <defs>
    <style>
      .cls-1 {
        fill: #edd0a9;
      }

      .cls-2 {
        fill: #b78963;
      }

      .cls-3 {
        fill: #29abe2;
        opacity: .15;
      }
    </style>
  </defs>
  <g id="Layer_1-2" data-name="Layer 1">
    <g>
      <path class="cls-3" d="M119.65,0c1.87,0,3.33,1.64,3.09,3.5l-5.75,46.25s-.51,5.86-3.31,10.37c-2.8,4.51-4.51,12.21-4.91,15.72-.33,2.89-4.49,38.68-5.92,51-.27,2.36-2.27,4.14-4.65,4.14H24.56c-2.37,0-4.37-1.78-4.65-4.14-1.43-12.32-5.59-48.1-5.92-51-.4-3.51-2.1-11.21-4.91-15.72-2.8-4.5-3.31-10.37-3.31-10.37L.02,3.5C-.21,1.64,1.24,0,3.12,0h116.53Z"/>
      <path class="cls-3" d="M120.2,0s-5.36,116.31-58.82,116.31S2.56,0,2.56,0h117.64Z"/>
      <path class="cls-2" d="M116.36,32.97c-5.86,34.39-20.3,83.33-54.98,83.33S12.27,67.36,6.4,32.97h109.96Z"/>
      <path class="cls-1" d="M119.47,9.51c-.56,5.92-1.52,14.15-3.11,23.46H6.4c-1.59-9.31-2.55-17.54-3.11-23.46h116.18Z"/>
      <path class="cls-3" d="M80.63,70.03l-1.95,60.94h-34.58l-1.96-60.94s4.72-11.71,19.25-11.71,19.25,11.71,19.25,11.71Z"/>
      <path class="cls-3" d="M111.23,65.48c-1.35,3.86-2.19,8.03-2.45,10.35-.33,2.89-4.49,38.68-5.92,51-.27,2.36-2.27,4.14-4.65,4.14h-18.02l2.12-60.94s5.68-11.71,18.53-11.71c8.44,0,10.4,7.17,10.4,7.17Z"/>
      <path class="cls-3" d="M11.53,65.48c1.35,3.86,2.19,8.03,2.45,10.35.33,2.89,4.49,38.68,5.92,51,.27,2.36,2.27,4.14,4.65,4.14h18.02l-2.12-60.94s-5.68-11.71-18.53-11.71c-8.44,0-10.4,7.17-10.4,7.17Z"/>
    </g>
  </g>
</svg>