<?xml version="1.0" encoding="UTF-8"?>
<svg id="Layer_2" data-name="Layer 2" xmlns="http://www.w3.org/2000/svg" viewBox="0 0 26.54 61.65">
  <defs>
    <style>
      .cls-1 {
        fill: #54a1f3;
      }
    </style>
  </defs>
  <g id="Layer_1-2" data-name="Layer 1">
    <path class="cls-1" d="M26.53,56.54s.03.39-.18.79c-.21.4-1.56,2.63-1.56,2.63,0,0-1.01,1.69-2.85,1.69H4.6c-1.84,0-2.85-1.69-2.85-1.69,0,0-1.35-2.23-1.56-2.63-.21-.4-.18-.79-.18-.79v-1.21c0-.53.09-.84.33-1.28.25-.44.26-.81.26-.81,0,0,.08-26.14.08-26.98s-.27-1.14-.27-1.14c-.89-1.57-.06-3.6-.06-3.6,0,0,3.67-10.18,4.11-11.35.44-1.18.33-1.64-.28-2.37-.61-.72,0-1.31,0-1.31l1.47-1.64h-1.25V.64c0-.35.29-.64.64-.64h16.23c.35,0,.64.29.64.64v4.2h-1l1.47,1.64s.61.59,0,1.31c-.61.72-.72,1.19-.28,2.37.44,1.18,4.11,11.35,4.11,11.35,0,0,.82,2.03-.06,3.6,0,0-.27.29-.27,1.14s.08,26.98.08,26.98c0,0,.02.37.26.81.25.44.33.74.33,1.28v1.21Z"/>
  </g>
</svg>