<?xml version="1.0" encoding="UTF-8"?>
<svg id="Layer_2" data-name="Layer 2" xmlns="http://www.w3.org/2000/svg" viewBox="0 0 68.32 68.11">
  <g id="Layer_1-2" data-name="Layer 1">
    <path d="M67.92,44.1c-2.02.57-3.16-3.03-6.19-9.46-3.04-6.44-1.75-14.67-1.62-16.9.13-2.22,0-3.91,0-3.91,0,0-.27-3.01-3.49-3.01s-5.99,4.28-6.52,5.15c-.53.86-1.16.88-1.16.88l-6.44,1.04.2,1.88h.05s15,7.78,15,27.73-23.28,20.61-23.28,20.61h-11.19S0,67.44,0,47.5s15-27.73,15-27.73l.77-6.97h1.3c0-1.52-7.15-11.46-7.47-11.71-.33-.26-.58-.61-.4-.88C9.39-.05,9.73,0,9.73,0l33.65,8.91c5.44-1.49,8.96-3.59,8.96-3.59,0,0,.54-.43,1.27-.19,3.45.94,5.38-.17,6.31-1.55,1.07-1.6,1.81-.72,1.81-.72,0,0,4.55,5.27,4.55,12.63s-1.07,7.49-1.07,14.67,2.91,12.29,2.91,12.29c0,0,.57,1.18-.2,1.65Z"/>
  </g>
</svg>