<?xml version="1.0" encoding="UTF-8"?>
<svg id="Layer_2" data-name="Layer 2" xmlns="http://www.w3.org/2000/svg" viewBox="0 0 77.35 45.62">
  <defs>
    <style>
      .cls-1 {
        fill: #54a1f3;
      }
    </style>
  </defs>
  <g id="Layer_1-2" data-name="Layer 1">
    <path class="cls-1" d="M64.47,5.58c-1.93,0-3.77.43-5.41,1.19,0,0-.96.38-1.68-.21-.51-.42-.38-1.46-.38-1.55h0s0,0,0,0c.05-1.3.06-2.38.05-3.2,0-.99-.81-1.79-1.8-1.79H1.8C.81,0,0,.8,0,1.79c-.03,6.22.8,27.41,12.83,43.13.34.44.87.71,1.43.71h11.5s1.53,0,5.53,0h11.5c.56,0,1.09-.26,1.43-.71,4.31-5.63,7.18-11.96,9.09-18.06,0,0,0,0,0-.02.07-.18.14-.45.42-.53.44-.12.66.19.66.19,2.36,2.95,5.99,4.84,10.07,4.84,7.11,0,12.88-5.77,12.88-12.88,0-7.12-5.77-12.88-12.88-12.88ZM64.47,23.31c-2.68,0-4.85-2.17-4.85-4.85s2.17-4.85,4.85-4.85c2.68,0,4.85,2.17,4.85,4.85s-2.17,4.85-4.85,4.85Z"/>
  </g>
</svg>