<?xml version="1.0" encoding="UTF-8"?>
<svg id="Layer_2" data-name="Layer 2" xmlns="http://www.w3.org/2000/svg" viewBox="0 0 68.49 47.21">
  <defs>
    <style>
      .cls-1 {
        fill: #54a1f3;
      }
    </style>
  </defs>
  <g id="Layer_1-2" data-name="Layer 1">
    <path class="cls-1" d="M68.48,26.61c-.52,8.08-4.91,15.29-11.63,20.3-.26.19-.58.3-.91.3H12.53c-.32,0-.64-.11-.9-.3C4.91,41.9.51,34.7,0,26.61c-.06-.86.64-1.59,1.51-1.59h10.55c-.12-.88-.17-1.77-.17-2.67C11.89,10,21.9,0,34.24,0s22.34,10,22.34,22.35c0,.9-.05,1.79-.17,2.67h10.56c.86,0,1.56.73,1.51,1.59Z"/>
  </g>
</svg>