<?xml version="1.0" encoding="UTF-8"?>
<svg id="Layer_2" data-name="Layer 2" xmlns="http://www.w3.org/2000/svg" viewBox="0 0 138.91 143.65">
  <defs>
    <style>
      .cls-1 {
        fill: #553d23;
      }

      .cls-2 {
        fill: #ddd;
      }

      .cls-3 {
        opacity: .15;
      }
    </style>
  </defs>
  <g id="Layer_1-2" data-name="Layer 1">
    <g>
      <path class="cls-3" d="M109.68,24.84l.92-12.16H0l9.55,126.35c.19,2.6,2.37,4.62,4.98,4.62h81.52c2.62,0,4.79-2.02,4.99-4.62l2.26-29.82h16.29c8.68,0,15.72-7.04,15.72-15.73l3.6-52.92c0-8.68-7.04-15.72-15.72-15.72h-13.51ZM127.39,91.01c0,5.59-4.53,10.12-10.11,10.12h-13.37l5.11-67.53h11.85c5.59,0,10.12,4.53,10.12,10.11l-3.6,47.3Z"/>
      <path class="cls-3" d="M106.98,12.68l-8.89,113.78c-.2,2.6-2.37,4.61-4.98,4.61H17.48c-2.61,0-4.78-2.01-4.98-4.61L3.62,12.68h103.36Z"/>
      <rect class="cls-2" x="13.64" y="5.51" width="24.63" height="31.23" rx="4.9" ry="4.9" transform="translate(-5.74 10.37) rotate(-20.39)"/>
      <rect class="cls-2" x="45.33" y="2.01" width="24.63" height="31.23" rx="4.9" ry="4.9" transform="translate(31.33 -36.61) rotate(47.11)"/>
      <rect class="cls-2" x="74.8" y="8.74" width="24.63" height="31.23" rx="4.9" ry="4.9" transform="translate(8.51 -20.39) rotate(14.03)"/>
      <path class="cls-1" d="M105.28,34.46l-7.19,92c-.2,2.6-2.38,4.61-4.99,4.61H17.49c-2.61,0-4.79-2.01-4.99-4.61L5.32,34.46h99.96Z"/>
      <polygon class="cls-1" points="106.45 19.46 105.28 34.46 5.32 34.46 4.15 19.46 106.45 19.46"/>
    </g>
  </g>
</svg>