<?xml version="1.0" encoding="UTF-8"?>
<svg id="Layer_2" data-name="Layer 2" xmlns="http://www.w3.org/2000/svg" viewBox="0 0 64.1 56.37">
  <g id="Layer_1-2" data-name="Layer 1">
    <path d="M62.9,6.2c-2.15-2.87-5.53-2.61-5.65-2.59-.08,0-7.83.44-10.43.48-1.01.02-1.8.33-2.36.94-.59.66-.73,1.47-.75,1.93l-.27-6.1H15.41C10.21.86,4.99,0,3.37,0S0,.86,0,.86c0,0,1.57,1.22,1.83,1.79.25.57,1.1,6.83,2.71,21.47l-1.01,27.09s-.32,5.16,6.28,5.16h29.56c6.6,0,6.27-5.16,6.27-5.16l-.18-4.05,1.35-.02-.11-2.94c-.03-1.73,1.01-2.2,1.06-2.22,0,0,4.66-2.1,7.55-3.42,3.18-1.45,3.76-4.79,3.78-4.89l4.53-20.25c.06-.18,1.42-4.37-.72-7.22ZM62.31,13.05l-4.56,20.36s-.5,2.77-3,3.91c-2.88,1.32-7.53,3.41-7.53,3.41-.07.03-1.92.79-1.88,3.49l.03.86-1.41-32.23,1.35-.07-.24-5.56s-.05-.78.41-1.28c.29-.31.74-.48,1.35-.49,2.64-.04,10.18-.47,10.51-.48.12-.01,2.79-.2,4.47,2.04,1.71,2.28.53,5.94.5,6.04Z"/>
  </g>
</svg>