<?xml version="1.0" encoding="UTF-8"?>
<svg id="Layer_2" data-name="Layer 2" xmlns="http://www.w3.org/2000/svg" viewBox="0 0 126.74 176.74">
  <defs>
    <style>
      .cls-1 {
        fill: #f4f4f4;
      }

      .cls-2 {
        fill: #edd0a9;
      }

      .cls-3 {
        fill: #553d23;
      }

      .cls-4 {
        fill: #29abe2;
        opacity: .15;
      }
    </style>
  </defs>
  <g id="Layer_1-2" data-name="Layer 1">
    <g>
      <path class="cls-4" d="M97.51,57.93l.92-12.16H0l9.55,126.35c.19,2.6,2.37,4.62,4.98,4.62h69.35c2.62,0,4.79-2.02,4.99-4.62l2.26-29.82h16.29c8.68,0,15.72-7.04,15.72-15.73l3.6-52.92c0-8.68-7.04-15.72-15.72-15.72h-13.51ZM115.22,124.1c0,5.59-4.53,10.12-10.11,10.12h-13.37l5.11-67.53h11.85c5.59,0,10.12,4.53,10.12,10.11l-3.6,47.3Z"/>
      <path class="cls-4" d="M94.81,45.77l-8.89,113.78c-.2,2.6-2.37,4.61-4.98,4.61H17.48c-2.61,0-4.78-2.01-4.98-4.61L3.62,45.77h91.19Z"/>
      <path class="cls-1" d="M47.75,0s-19.05,5.52-15.12,21.95c-8.51,3.81-15.8,7.59-17.69,16.3-.61,2.78-.59,6.13,2.02,11.22-5.88,1.98-10.27,10.23-10.27,18.25s7.95,21.32,32,19.57c31.56,10.89,50.41-1.1,52.8-14.13,1.1-5.98-1.27-12.17-7.46-16.47,4.21-5.04,4.21-19.07-14.71-28.54,5.41-5.86-1.39-15.96-12.28-19.26C44.35,5.04,47.75,0,47.75,0Z"/>
      <path class="cls-3" d="M93.11,67.55l-7.19,92c-.2,2.6-2.38,4.61-4.99,4.61H17.49c-2.61,0-4.79-2.01-4.99-4.61l-7.18-92h87.79Z"/>
      <polygon class="cls-2" points="94.28 52.55 93.11 67.55 5.32 67.55 4.15 52.55 94.28 52.55"/>
    </g>
  </g>
</svg>