<?xml version="1.0" encoding="UTF-8"?>
<svg id="Layer_2" data-name="Layer 2" xmlns="http://www.w3.org/2000/svg" viewBox="0 0 121.05 126.82">
  <defs>
    <style>
      .cls-1 {
        fill: #1c1c1c;
      }

      .cls-2 {
        fill: #515151;
        opacity: .75;
      }

      .cls-3 {
        fill: #9b9b9b;
      }

      .cls-4 {
        fill: #333;
      }
    </style>
  </defs>
  <g id="Layer_1-2" data-name="Layer 1">
    <g>
      <path class="cls-2" d="M99.14,124.2c-1.21,1.63-3.1,2.62-5.13,2.62H27.05c-2.03,0-3.92-.99-5.13-2.62C1.37,96.46-.06,27.51,0,6.31.01,2.82,2.84,0,6.33,0h108.38c3.49,0,6.32,2.82,6.33,6.31.06,21.2-1.37,90.15-21.9,117.89Z"/>
      <path class="cls-2" d="M113.85,0s-5.12,80.95-21.9,106.91c-1.44,2.23-3.94,3.53-6.6,3.53h-49.67c-2.65,0-5.16-1.3-6.6-3.53C12.33,80.95,7.2,0,7.2,0h106.65Z"/>
      <path class="cls-4" d="M113.54,4.26c-.24,3.08-.62,7.66-1.18,13.25H8.69c-.56-5.59-.94-10.17-1.18-13.25h106.03Z"/>
      <path class="cls-1" d="M112.36,17.51c-2.53,25.3-8.57,71.07-20.41,89.4-1.44,2.23-3.95,3.53-6.6,3.53h-49.66c-2.65,0-5.16-1.3-6.6-3.53C17.25,88.57,11.22,42.81,8.69,17.51h103.67Z"/>
      <path class="cls-3" d="M46.08,57.02c.04-2.12.4-4.05,1.09-5.81s1.64-3.29,2.88-4.58c1.23-1.29,2.72-2.3,4.46-3.02,1.74-.72,3.69-1.09,5.84-1.09,2.78,0,5.1.38,6.96,1.15,1.86.76,3.35,1.71,4.49,2.85s1.95,2.36,2.44,3.67c.49,1.31.73,2.53.73,3.67,0,1.88-.25,3.42-.73,4.64-.49,1.21-1.1,2.25-1.82,3.11-.73.86-1.53,1.59-2.41,2.2-.88.61-1.71,1.21-2.49,1.82-.78.61-1.48,1.3-2.09,2.09-.61.78-.99,1.76-1.14,2.93v2.23h-7.93v-2.64c.12-1.68.44-3.09.97-4.23.53-1.13,1.14-2.1,1.85-2.91s1.45-1.5,2.23-2.09c.78-.59,1.5-1.17,2.17-1.76.66-.59,1.2-1.23,1.61-1.94s.6-1.59.56-2.64c0-1.8-.44-3.13-1.32-3.99-.88-.86-2.11-1.29-3.67-1.29-1.06,0-1.97.2-2.73.61-.76.41-1.39.96-1.88,1.64-.49.69-.85,1.49-1.09,2.41-.24.92-.35,1.91-.35,2.97h-8.63ZM64.75,76.39v9.04h-9.22v-9.04h9.22Z"/>
    </g>
  </g>
</svg>