<?xml version="1.0" encoding="UTF-8"?>
<svg id="Layer_2" data-name="Layer 2" xmlns="http://www.w3.org/2000/svg" viewBox="0 0 126.74 130.97">
  <defs>
    <style>
      .cls-1 {
        fill: #2b1c0d;
      }

      .cls-2 {
        fill: #edd0a9;
      }

      .cls-3 {
        fill: #29abe2;
        opacity: .15;
      }
    </style>
  </defs>
  <g id="Layer_1-2" data-name="Layer 1">
    <g>
      <path class="cls-3" d="M97.51,12.16L98.43,0H0l9.55,126.35c.19,2.6,2.37,4.62,4.98,4.62h69.35c2.62,0,4.79-2.02,4.99-4.62l2.26-29.82h16.29c8.68,0,15.72-7.04,15.72-15.73l3.6-52.92c0-8.68-7.04-15.72-15.72-15.72h-13.51ZM115.22,78.33c0,5.59-4.53,10.12-10.11,10.12h-13.37l5.11-67.53h11.85c5.59,0,10.12,4.53,10.12,10.11l-3.6,47.3Z"/>
      <path class="cls-3" d="M94.81,0l-8.89,113.78c-.2,2.6-2.37,4.61-4.98,4.61H17.48c-2.61,0-4.78-2.01-4.98-4.61L3.62,0h91.19Z"/>
      <path class="cls-1" d="M93.11,21.78l-7.19,92c-.2,2.6-2.38,4.61-4.99,4.61H17.49c-2.61,0-4.79-2.01-4.99-4.61L5.32,21.78h87.79Z"/>
      <polygon class="cls-2" points="94.28 6.78 93.11 21.78 5.32 21.78 4.15 6.78 94.28 6.78"/>
    </g>
  </g>
</svg>