<svg width="20" height="19" viewBox="0 0 20 19" fill="none" xmlns="http://www.w3.org/2000/svg">
<path d="M6.25 7.31815H1.75C1.45163 7.31815 1.16548 7.19963 0.954505 6.98865C0.743526 6.77767 0.625 6.49152 0.625 6.19315V1.69315C0.625 1.39478 0.743526 1.10864 0.954505 0.897657C1.16548 0.686679 1.45163 0.568152 1.75 0.568152C2.04837 0.568152 2.33452 0.686679 2.5455 0.897657C2.75647 1.10864 2.875 1.39478 2.875 1.69315V3.4744L3.60625 2.74315C5.34974 0.992671 7.71689 0.00601941 10.1875 2.74329e-05H10.24C12.6894 -0.00591244 15.0426 0.952953 16.7903 2.66909C16.8959 2.77238 16.9802 2.89547 17.0383 3.03132C17.0963 3.16718 17.1271 3.31314 17.1287 3.46087C17.1304 3.6086 17.1029 3.75521 17.0479 3.89233C16.9929 4.02945 16.9114 4.15439 16.8081 4.26003C16.7048 4.36566 16.5817 4.44991 16.4459 4.50797C16.31 4.56604 16.1641 4.59677 16.0163 4.59843C15.8686 4.60008 15.722 4.57262 15.5849 4.51761C15.4478 4.46261 15.3228 4.38113 15.2172 4.27784C13.8757 2.96774 12.072 2.23923 10.1969 2.25029C8.32191 2.26135 6.52683 3.01107 5.20094 4.3369L4.46875 5.06815H6.25C6.54837 5.06815 6.83452 5.18668 7.0455 5.39766C7.25647 5.60863 7.375 5.89478 7.375 6.19315C7.375 6.49152 7.25647 6.77767 7.0455 6.98865C6.83452 7.19963 6.54837 7.31815 6.25 7.31815ZM18.25 11.0682H13.75C13.4516 11.0682 13.1655 11.1867 12.9545 11.3977C12.7435 11.6086 12.625 11.8948 12.625 12.1932C12.625 12.4915 12.7435 12.7777 12.9545 12.9886C13.1655 13.1996 13.4516 13.3182 13.75 13.3182H15.5312L14.8 14.0494C13.4761 15.3799 11.6782 16.1305 9.80125 16.1363H9.76094C7.89978 16.1411 6.11163 15.4126 4.78375 14.1085C4.57042 13.8999 4.28295 13.7845 3.98459 13.7879C3.68623 13.7912 3.40142 13.9129 3.19281 14.1263C2.9842 14.3396 2.86888 14.6271 2.87222 14.9254C2.87557 15.2238 2.99729 15.5086 3.21063 15.7172C4.95833 17.4333 7.31154 18.3922 9.76094 18.3863H9.8125C12.2822 18.3785 14.6479 17.3909 16.39 15.6403L17.125 14.9119V16.6932C17.125 16.9915 17.2435 17.2777 17.4545 17.4886C17.6655 17.6996 17.9516 17.8182 18.25 17.8182C18.5484 17.8182 18.8345 17.6996 19.0455 17.4886C19.2565 17.2777 19.375 16.9915 19.375 16.6932V12.1932C19.375 11.8948 19.2565 11.6086 19.0455 11.3977C18.8345 11.1867 18.5484 11.0682 18.25 11.0682Z" fill="white"/>
</svg>
