<?xml version="1.0" encoding="UTF-8"?>
<svg id="Layer_2" data-name="Layer 2" xmlns="http://www.w3.org/2000/svg" viewBox="0 0 121.05 126.82">
  <defs>
    <style>
      .cls-1 {
        fill: #dda047;
      }

      .cls-2 {
        fill: #553d23;
      }

      .cls-3 {
        fill: #29abe2;
        opacity: .15;
      }
    </style>
  </defs>
  <g id="Layer_1-2" data-name="Layer 1">
    <g>
      <path class="cls-3" d="M99.14,124.2c-1.21,1.63-3.1,2.62-5.13,2.62H27.05c-2.03,0-3.92-.99-5.13-2.62C1.37,96.46-.06,27.51,0,6.31.01,2.82,2.84,0,6.33,0h108.38c3.49,0,6.32,2.82,6.33,6.31.06,21.2-1.37,90.15-21.9,117.89Z"/>
      <path class="cls-3" d="M113.85,0s-5.12,80.95-21.9,106.91c-1.44,2.23-3.94,3.53-6.6,3.53h-49.67c-2.65,0-5.16-1.3-6.6-3.53C12.33,80.95,7.2,0,7.2,0h106.65Z"/>
      <path class="cls-2" d="M107.68,53.54c-3.43,20.75-8.5,42.17-15.73,53.37-1.44,2.23-3.94,3.53-6.59,3.53h-49.67c-2.65,0-5.16-1.3-6.6-3.53-7.23-11.2-12.29-32.62-15.72-53.37h94.31Z"/>
      <path class="cls-1" d="M109.7,40.11c-.6,4.37-1.27,8.88-2.02,13.43H13.37c-.75-4.55-1.42-9.06-2.02-13.43h98.35Z"/>
    </g>
  </g>
</svg>