<?xml version="1.0" encoding="UTF-8"?>
<svg id="Layer_2" data-name="Layer 2" xmlns="http://www.w3.org/2000/svg" viewBox="0 0 94.92 63.43">
  <g id="Layer_1-2" data-name="Layer 1">
    <path d="M52.83,4.67h11.89c.15,0,.78.63.78.78v5.61h7.55c2.55.02,3.3-1.23,4.21-2.43.43-.56,1.52-2.23,1.76-2.51.87.43,6.5,2.96,6.5,2.96,0,0-.72,1.65-1.58,3.97-.51,1.37-.28,2.34.31,3.73.84,1.98,2.7,6.92,3.68,9.21,1.98,4.63,6.27,14.42,6.99,15.98-1.45.64-6.55,2.7-6.55,2.7,0,0-7.13-16.61-10.53-24.19-1.34-2.67-2.85-3.62-5.16-3.62h-7.18c-.05,1.91.03,3.82.26,5.72,2.75,11.64,5.69,21.39,9.12,33.24,1.18,4.08-2.79,7.04-5.82,7.52,0,0-30.24.18-40.45,0-2.56-.04-5.35-3.08-5.62-5.75-.22-2.16.23-3.45.61-5.48-6.17-1.18-9.24-6.72-10.47-12.41-1.68-7.79-2.29-16.63-4.35-24.26C6.87,8.29,0,4.18,0,4.18l5.86.3s2.37,2.17,3.15,3.31c5.73,8.33,5.94,21.72,7.61,29.64.99,4.69,2.63,10.01,8.2,10.53l6.96-25.04c.71-5.78.29-11.65.39-17.48-.13-.29.66-.78.79-.78h12.13c.22-1.15-.76-.88-1.5-1.22-.98-.45-1.38-1.64-.5-2.4,1.82-1.57,9.88-1.16,11.4-.17.99.64,1.03,1.9-.03,2.49-.75.42-1.89.11-1.66,1.3Z"/>
  </g>
</svg>